<svg viewBox="0 0 24 24" fill="none" xmlns="http://www.w3.org/2000/svg">
    <path fill-rule="evenodd" clip-rule="evenodd" d="M7 12.4998C7 9.57388 9 7.49976 12 7.49976C15.0017 7.49976 17 9.48157 17 12.5742C17 15.5746 15.0017 17.4998 12.002 17.4998C9.00234 17.4998 7 15.5746 7 12.4998ZM9.00234 12.5742C9.00234 14.229 10.3516 15.5746 12.002 15.5746C13.6524 15.5746 15.0017 14.229 15.0017 12.5742C15.0017 10.9194 13.6564 9.57388 12.002 9.57388C10.3476 9.57388 9.00234 10.9194 9.00234 12.5742ZM17.8047 8.8469C18.399 8.8469 18.8809 8.36893 18.8809 7.77047C18.8809 7.17603 18.399 6.69404 17.8047 6.69404C17.2104 6.69404 16.7285 7.17603 16.7285 7.77047C16.7285 8.36491 17.2064 8.8469 17.8047 8.8469ZM19.4831 5.09146C20.5392 6.14378 20.8685 7.42103 20.9368 8.86296C21.0211 10.3491 21.0211 14.7994 20.9368 16.2855C20.8645 17.7274 20.5352 19.0047 19.4831 20.057C18.431 21.1133 17.154 21.4427 15.7124 21.511C14.2267 21.5953 9.77334 21.5953 8.28756 21.511C6.84596 21.4387 5.57301 21.1093 4.5169 20.057C3.46079 19.0047 3.13151 17.7274 3.06325 16.2855C2.97892 14.7994 2.97892 10.3451 3.06325 8.85894C3.13553 7.41702 3.46079 6.13977 4.5169 5.08744C5.57301 4.03511 6.84997 3.70576 8.28756 3.63748C9.77334 3.55313 14.2267 3.55313 15.7124 3.63748C17.154 3.70978 18.431 4.03913 19.4831 5.09146Z" fill="#363636"/>
</svg>
