<svg viewBox="0 0 24 24" fill="none" xmlns="http://www.w3.org/2000/svg">
    <path d="M7.02901 21.5742H3.29726V8.88917H7.02901V21.5742ZM5.16112 7.15882C3.96809 7.15882 3 6.11551 3 4.85592C3 3.59632 3.96809 2.57422 5.16112 2.57422C6.35416 2.57422 7.32225 3.59632 7.32225 4.85592C7.32225 6.11551 6.35416 7.15882 5.16112 7.15882ZM20.996 21.5742H17.2723V15.3992C17.2723 13.9276 17.2441 12.0403 15.3321 12.0403C13.3919 12.0403 13.0946 13.6392 13.0946 15.2932V21.5742H9.36688V8.88917H12.946V10.6195H12.9982C13.4963 9.62288 14.7135 8.57109 16.5291 8.57109C20.3051 8.57109 21 11.1963 21 14.6061V21.5742H20.996Z" fill="#363636"/>
</svg>
