<svg viewBox="0 0 24 24" fill="none" xmlns="http://www.w3.org/2000/svg">
    <path d="M22.4986 8.46934C22.6497 7.95372 22.4986 7.57422 21.7716 7.57422H19.3661C18.7535 7.57422 18.4717 7.90009 18.3206 8.26309C18.3206 8.26309 17.0954 11.2785 15.3637 13.2337C14.8042 13.7988 14.5469 13.9803 14.2406 13.9803C14.0895 13.9803 13.8567 13.7988 13.8567 13.2832V8.46934C13.8567 7.85059 13.6852 7.57422 13.1787 7.57422H9.39687C9.01297 7.57422 8.78426 7.86297 8.78426 8.13109C8.78426 8.71684 9.65009 8.85297 9.73993 10.503V14.0835C9.73993 14.8672 9.60108 15.0116 9.29477 15.0116C8.47795 15.0116 6.49309 11.9838 5.31687 8.51884C5.08 7.84647 4.84721 7.57422 4.23051 7.57422H1.82498C1.13886 7.57422 1 7.90009 1 8.26309C1 8.90659 1.81682 12.1035 4.80228 16.3275C6.79123 19.2108 9.59291 20.7742 12.1414 20.7742C13.6729 20.7742 13.8608 20.4277 13.8608 19.8296C13.8608 17.0741 13.7219 16.8142 14.4897 16.8142C14.845 16.8142 15.4577 16.9957 16.8871 18.3858C18.5207 20.0358 18.7903 20.7742 19.7051 20.7742H22.1106C22.7967 20.7742 23.1439 20.4277 22.9438 19.743C22.4864 18.3033 19.3947 15.3416 19.2558 15.1436C18.9005 14.6816 19.0026 14.4753 19.2558 14.0628C19.2599 14.0587 22.1964 9.88422 22.4986 8.46934Z" fill="#363636"/>
</svg>
