<svg viewBox="0 0 16 16" fill="none" xmlns="http://www.w3.org/2000/svg">
    <path fill-rule="evenodd" clip-rule="evenodd" d="M2.54545 2C2.24421 2 2 2.24421 2 2.54545V6.90909C2 7.21034 2.24421 7.45455 2.54545 7.45455H6.90909C7.21034 7.45455 7.45455 7.21034 7.45455 6.90909V2.54545C7.45455 2.24421 7.21034 2 6.90909 2H2.54545ZM3.09091 6.36364V3.09091H6.36364V6.36364H3.09091ZM9.09091 2C8.78966 2 8.54545 2.24421 8.54545 2.54545V6.90909C8.54545 7.21034 8.78966 7.45455 9.09091 7.45455H13.4545C13.7558 7.45455 14 7.21034 14 6.90909V2.54545C14 2.24421 13.7558 2 13.4545 2H9.09091ZM9.63636 6.36364V3.09091H12.9091V6.36364H9.63636ZM2 9.09091C2 8.78966 2.24421 8.54545 2.54545 8.54545H6.90909C7.21034 8.54545 7.45455 8.78966 7.45455 9.09091V13.4545C7.45455 13.7558 7.21034 14 6.90909 14H2.54545C2.24421 14 2 13.7558 2 13.4545V9.09091ZM3.09091 9.63636V12.9091H6.36364V9.63636H3.09091ZM9.09091 8.54545C8.78966 8.54545 8.54545 8.78966 8.54545 9.09091V13.4545C8.54545 13.7558 8.78966 14 9.09091 14H13.4545C13.7558 14 14 13.7558 14 13.4545V9.09091C14 8.78966 13.7558 8.54545 13.4545 8.54545H9.09091ZM9.63636 12.9091V9.63636H12.9091V12.9091H9.63636Z" fill="#A7A7A7"/>
</svg>
